<?xml version="1.0" encoding="utf-8"?>
<!-- Generator: Adobe Illustrator 21.1.0, SVG Export Plug-In . SVG Version: 6.00 Build 0)  -->
<svg version="1.1" id="Layer_1" xmlns="http://www.w3.org/2000/svg" xmlns:xlink="http://www.w3.org/1999/xlink" x="0px" y="0px"
	 width="38px" height="38px" viewBox="0 0 38 38" style="enable-background:new 0 0 38 38;" xml:space="preserve">
<style type="text/css">
	.st0{fill:#844022;}
	.st1{fill:#FEFDFF;}
</style>
<g>
	<circle class="st0" cx="19" cy="19" r="19"/>
</g>
<g>
	<path class="st1" d="M19,6.7C12.2,6.7,6.7,12.2,6.7,19S12.2,31.3,19,31.3S31.3,25.8,31.3,19S25.8,6.7,19,6.7z M26.3,26.3
		c-0.9,0.9-2.1,1.7-3.3,2.2c-0.3,0.1-0.6,0.2-1,0.3V27c0-1-0.3-1.7-1-2.1c0.4,0,0.8-0.1,1.1-0.2s0.7-0.2,1.1-0.3
		c0.4-0.1,0.7-0.3,1-0.5c0.3-0.2,0.6-0.4,0.9-0.7c0.3-0.3,0.5-0.6,0.7-1c0.2-0.4,0.3-0.8,0.5-1.4c0.1-0.5,0.2-1.1,0.2-1.8
		c0-1.2-0.4-2.3-1.2-3.2c0.4-1,0.3-2-0.1-3.1l-0.3,0c-0.2,0-0.6,0.1-1.1,0.3c-0.5,0.2-1.1,0.5-1.8,1c-1-0.3-1.9-0.4-3-0.4
		c-1,0-2,0.1-3,0.4c-0.4-0.3-0.8-0.5-1.2-0.7c-0.4-0.2-0.7-0.3-0.9-0.4c-0.2-0.1-0.4-0.1-0.6-0.1c-0.2,0-0.3,0-0.4,0s-0.1,0-0.1,0
		c-0.4,1.1-0.5,2.2-0.1,3.1c-0.8,0.9-1.2,1.9-1.2,3.2c0,0.6,0.1,1.2,0.2,1.8c0.1,0.5,0.3,1,0.5,1.4c0.2,0.4,0.4,0.7,0.7,1
		c0.3,0.3,0.6,0.5,0.9,0.7c0.3,0.2,0.7,0.4,1,0.5s0.8,0.2,1.1,0.3s0.7,0.1,1.1,0.2c-0.7,0.4-1,1.2-1,2.1v1.9
		c-0.4-0.1-0.7-0.2-1.1-0.4c-1.2-0.5-2.3-1.3-3.3-2.2c-0.9-0.9-1.7-2.1-2.2-3.3c-0.5-1.3-0.8-2.6-0.8-4s0.3-2.7,0.8-4
		c0.5-1.2,1.3-2.3,2.2-3.3S13.8,10,15,9.5c1.3-0.5,2.6-0.8,4-0.8s2.7,0.3,4,0.8c1.2,0.5,2.3,1.3,3.3,2.2c0.9,0.9,1.7,2.1,2.2,3.3
		c0.5,1.3,0.8,2.6,0.8,4s-0.3,2.7-0.8,4C28,24.2,27.2,25.3,26.3,26.3z"/>
</g>
</svg>
