<?xml version="1.0" encoding="utf-8"?>
<!-- Generator: Adobe Illustrator 21.1.0, SVG Export Plug-In . SVG Version: 6.00 Build 0)  -->
<svg version="1.1" id="Layer_1" xmlns="http://www.w3.org/2000/svg" xmlns:xlink="http://www.w3.org/1999/xlink" x="0px" y="0px"
	 width="38px" height="38px" viewBox="0 0 38 38" style="enable-background:new 0 0 38 38;" xml:space="preserve">
<style type="text/css">
	.st0{fill:#844022;}
	.st1{fill:#FFFFFF;}
</style>
<g>
	<circle class="st0" cx="19" cy="19" r="19"/>
</g>
<path class="st1" d="M28.1,16.5v8c0,0.4-0.2,0.8-0.5,1.2c-0.4,0.4-0.7,0.5-1.2,0.5H11.5c-0.4,0-0.8-0.2-1.2-0.5
	c-0.4-0.4-0.4-0.7-0.4-1.2v-8c0.3,0.4,0.6,0.6,1,0.9c2.4,1.6,4.1,2.8,5,3.5c0.4,0.3,0.7,0.5,0.9,0.6c0.3,0.2,0.5,0.4,1,0.4
	c0.4,0.2,0.8,0.3,1.1,0.3l0,0c0.4,0,0.7-0.1,1.1-0.3s0.7-0.4,1-0.4c0.3-0.2,0.5-0.4,0.9-0.6c1.2-0.8,2.8-2,5-3.5
	C27.5,17.1,27.7,16.8,28.1,16.5z M28.1,13.5c0,0.5-0.2,1.1-0.5,1.5c-0.4,0.4-0.7,0.9-1.3,1.3c-2.5,1.8-4.1,2.9-4.8,3.3
	c-0.1,0.1-0.2,0.2-0.4,0.3c-0.2,0.2-0.4,0.3-0.5,0.4s-0.4,0.2-0.5,0.4c-0.2,0.1-0.4,0.2-0.5,0.3C19.3,21,19.1,21,18.9,21l0,0
	c-0.2,0-0.4,0-0.5-0.1s-0.4-0.2-0.5-0.3c-0.2-0.1-0.4-0.3-0.5-0.4s-0.4-0.3-0.5-0.4c-0.2-0.2-0.4-0.3-0.5-0.3
	c-0.6-0.4-1.5-1.1-2.6-1.8c-1.2-0.8-1.8-1.3-2.1-1.4c-0.5-0.3-0.8-0.6-1.2-1.2c-0.4-0.5-0.5-1-0.5-1.4c0-0.5,0.2-1,0.4-1.3
	c0.3-0.4,0.7-0.5,1.2-0.5h14.9c0.5,0,0.8,0.2,1.2,0.4C27.9,12.7,28.1,13.1,28.1,13.5z"/>
</svg>
