<?xml version="1.0" encoding="utf-8"?>
<!-- Generator: Adobe Illustrator 21.1.0, SVG Export Plug-In . SVG Version: 6.00 Build 0)  -->
<svg version="1.1" id="Layer_1" xmlns="http://www.w3.org/2000/svg" xmlns:xlink="http://www.w3.org/1999/xlink" x="0px" y="0px"
	 width="38px" height="38px" viewBox="0 0 38 38" style="enable-background:new 0 0 38 38;" xml:space="preserve">
<style type="text/css">
	.st0{fill:#844022;}
	.st1{fill:#FFFFFF;}
</style>
<g>
	<circle class="st0" cx="19" cy="19" r="19"/>
</g>
<g id="XMLID_496_">
	<path id="XMLID_497_" class="st1" d="M8.8,19l4.2,1.6l1.6,5.2c0.1,0.3,0.5,0.5,0.8,0.2l2.3-1.9c0.2-0.2,0.6-0.2,0.9,0l4.2,3.1
		c0.3,0.2,0.7,0.1,0.8-0.3L26.7,12c0.1-0.4-0.3-0.7-0.7-0.6L8.8,18.1C8.4,18.3,8.4,18.9,8.8,19z M14.4,19.8l8.2-5.1
		c0.1-0.1,0.3,0.1,0.2,0.2L16,21.3c-0.2,0.2-0.4,0.5-0.4,0.8l-0.2,1.7c0,0.2-0.4,0.3-0.4,0L14,20.7C13.9,20.4,14.1,20,14.4,19.8z"/>
</g>
</svg>
