<?xml version="1.0" encoding="utf-8"?>
<!-- Generator: Adobe Illustrator 21.1.0, SVG Export Plug-In . SVG Version: 6.00 Build 0)  -->
<svg version="1.1" id="Layer_1" xmlns="http://www.w3.org/2000/svg" xmlns:xlink="http://www.w3.org/1999/xlink" x="0px" y="0px"
	 width="38px" height="38px" viewBox="0 0 38 38" style="enable-background:new 0 0 38 38;" xml:space="preserve">
<style type="text/css">
	.st0{fill:#844022;}
	.st1{fill:#FFFFFF;}
</style>
<g>
	<circle class="st0" cx="19" cy="19" r="19"/>
</g>
<g>
	<g>
		<path class="st1" d="M29.4,13.2c-0.7,0.3-1.4,0.5-2.2,0.6c0.8-0.5,1.4-1.2,1.7-2.1c-0.8,0.5-1.6,0.8-2.5,0.9
			c-0.7-0.8-1.7-1.2-2.9-1.2c-2.1,0-3.9,1.7-3.9,3.9c0,0.3,0,0.6,0.1,0.9c-3.2-0.2-6.1-1.7-8-4.1c-0.4,0.6-0.6,1.2-0.6,1.9
			c0,1.3,0.7,2.6,1.7,3.2c-0.7,0-1.2-0.2-1.7-0.5v0.1c0,1.9,1.3,3.4,3.1,3.8c-0.3,0.1-0.7,0.1-1,0.1c-0.3,0-0.5,0-0.8-0.1
			c0.5,1.5,1.9,2.7,3.6,2.7c-1.3,1-2.9,1.6-4.8,1.6c-0.3,0-0.7,0-0.9-0.1c1.7,1.1,3.7,1.7,5.9,1.7c7.1,0,11-5.9,11-11V15
			C28.3,14.6,28.9,14,29.4,13.2z"/>
	</g>
</g>
</svg>
